<svg width="24" height="24" viewBox="0 0 24 24" fill="none" xmlns="http://www.w3.org/2000/svg">
<path d="M4.50003 18.375H19.5C19.8294 18.377 20.1534 18.2913 20.4387 18.1265C20.7239 17.9617 20.9601 17.7239 21.1228 17.4375L4.50003 18.375ZM2.92148 15.5795L2.92149 15.5795C3.74093 14.17 4.1719 12.1527 4.1719 9.75C4.1719 7.67385 4.99665 5.68274 6.46471 4.21468C7.93276 2.74662 9.92388 1.92188 12 1.92188C14.0762 1.92188 16.0673 2.74662 17.5353 4.21468C19.0034 5.68274 19.8281 7.67385 19.8282 9.75C19.8282 12.1517 20.261 14.1699 21.0804 15.5794C21.2416 15.8582 21.3266 16.1745 21.327 16.4965C21.3273 16.8186 21.2429 17.135 21.0822 17.4141L21.0821 17.4143C20.9234 17.6935 20.6932 17.9253 20.4152 18.0859C20.1372 18.2465 19.8214 18.3301 19.5003 18.3281H19.5L4.50003 18.3281L4.49966 18.3281C4.17813 18.3306 3.86176 18.2472 3.58321 18.0866C3.30467 17.9259 3.07405 17.6939 2.91515 17.4143L2.91508 17.4142C2.75512 17.1347 2.6715 16.818 2.67262 16.496C2.67374 16.174 2.75957 15.8579 2.92148 15.5795ZM5.08234 16.1043L5.04912 16.1719H5.1244H18.8747H18.95L18.9168 16.1043C18.0912 14.4251 17.6719 12.2887 17.6719 9.75C17.6719 8.24573 17.0743 6.80306 16.0106 5.73938C14.947 4.6757 13.5043 4.07812 12 4.07812C10.4958 4.07812 9.05309 4.6757 7.98941 5.73938C6.92572 6.80306 6.32815 8.24573 6.32815 9.75C6.32815 12.2896 5.90795 14.4251 5.08234 16.1043ZM16.0782 21C16.0782 21.2859 15.9646 21.5602 15.7624 21.7623C15.5602 21.9645 15.286 22.0781 15 22.0781H9.00003C8.71409 22.0781 8.43986 21.9645 8.23768 21.7623C8.03549 21.5602 7.9219 21.2859 7.9219 21C7.9219 20.7141 8.03549 20.4398 8.23768 20.2377C8.43986 20.0355 8.71409 19.9219 9.00003 19.9219H15C15.286 19.9219 15.5602 20.0355 15.7624 20.2377C15.9646 20.4398 16.0782 20.7141 16.0782 21Z" fill="#475569" stroke="#475569" stroke-width="0.09375"/>
</svg>
