<svg width="24" height="24" viewBox="0 0 24 24" fill="none" xmlns="http://www.w3.org/2000/svg">
<path d="M21.15 5.87252L12.9 1.35658C12.6243 1.20484 12.3147 1.12527 12 1.12527C11.6853 1.12527 11.3757 1.20484 11.1 1.35658L2.85 5.87252C2.5548 6.03404 2.3085 6.27203 2.13695 6.56152C1.9654 6.85101 1.87492 7.18133 1.875 7.51783V16.4822C1.87492 16.8187 1.9654 17.149 2.13695 17.4385C2.3085 17.728 2.5548 17.966 2.85 18.1275L11.1 22.6435C11.3756 22.7954 11.6853 22.875 12 22.875C12.3147 22.875 12.6244 22.7954 12.9 22.6435L21.15 18.1275C21.4452 17.966 21.6915 17.728 21.863 17.4385C22.0346 17.149 22.1251 16.8187 22.125 16.4822V7.51783C22.1251 7.18133 22.0346 6.85101 21.863 6.56152C21.6915 6.27203 21.4452 6.03404 21.15 5.87252ZM12 3.42846L18.75 7.12502L12 10.8188L5.25 7.12502L12 3.42846ZM4.125 9.07408L10.875 12.7678V19.9556L4.125 16.26V9.07408ZM13.125 19.9556V12.7678L19.875 9.07408V16.26L13.125 19.9556Z" fill="#94A3B8"/>
</svg>
