<svg width="24" height="24" viewBox="0 0 24 24" fill="none" xmlns="http://www.w3.org/2000/svg">
<path d="M9 5.32998C9.90774 4.58604 11.008 4.11503 12.1729 3.9717C13.3377 3.82838 14.5193 4.01862 15.5803 4.52032C16.6413 5.02202 17.5382 5.81457 18.1665 6.80583C18.7949 7.79708 19.129 8.94633 19.13 10.12C19.1483 13.8602 17.685 17.4556 15.06 20.12" stroke="#000D26" stroke-width="1.5" stroke-linecap="round" stroke-linejoin="round"/>
<path d="M4.87988 12C5.12367 12 5.36506 11.9518 5.59016 11.8582C5.81527 11.7646 6.01966 11.6275 6.19158 11.4546C6.3635 11.2818 6.49956 11.0766 6.59194 10.851C6.68432 10.6254 6.7312 10.3838 6.72988 10.14C6.72997 9.40989 6.8586 8.6855 7.10988 8" stroke="#000D26" stroke-width="1.5" stroke-linecap="round" stroke-linejoin="round"/>
<path d="M13 17.75C12.1301 18.6594 11.1166 19.4195 10 20" stroke="#000D26" stroke-width="1.5" stroke-linecap="round" stroke-linejoin="round"/>
<path d="M4.87988 15.08C6.20597 15.08 7.47773 14.5532 8.41542 13.6155C9.3531 12.6778 9.87988 11.4061 9.87988 10.08C9.87988 9.25781 10.2065 8.46931 10.7879 7.88795C11.3692 7.30659 12.1577 6.97998 12.9799 6.97998C13.8021 6.97998 14.5906 7.30659 15.1719 7.88795C15.7533 8.46931 16.0799 9.25781 16.0799 10.08C16.0713 11.789 15.6674 13.4729 14.8999 15" stroke="#000D26" stroke-width="1.5" stroke-linecap="round" stroke-linejoin="round"/>
<path d="M5.92993 18.1C7.87396 17.8551 9.66052 16.9053 10.9508 15.4307C12.2411 13.9561 12.9453 12.0593 12.9299 10.1" stroke="#000D26" stroke-width="1.5" stroke-linecap="round" stroke-linejoin="round"/>
</svg>
