<svg width="21" height="14" viewBox="0 0 21 14" fill="none" xmlns="http://www.w3.org/2000/svg">
<path fill-rule="evenodd" clip-rule="evenodd" d="M18.0478 7.46692V9.60956H16.4411V7.46692H14.2327V5.90938H16.4411V3.76673H18.0478V5.90938H20.2563V7.46692H18.0478ZM6.60161 13.1538C3.0973 13.1538 0.256348 10.399 0.256348 6.99998C0.256348 3.60096 3.0973 0.84613 6.60161 0.84613C8.25168 0.84613 9.75424 1.45749 10.8826 2.45865L9.01255 4.23448C8.36169 3.70025 7.52082 3.37775 6.60161 3.37775C4.53903 3.37775 2.86646 4.9993 2.86646 6.99998C2.86646 9.00065 4.53903 10.6222 6.60161 10.6222C8.19751 10.6222 9.55924 9.65141 10.0943 8.28507H6.52161V5.71488H10.0943H12.7869H12.8085C12.8994 6.1293 12.9469 6.5593 12.9469 6.99998C12.9469 10.399 10.1059 13.1538 6.60161 13.1538Z" fill="white"/>
</svg>
