<svg width="144" height="50" viewBox="0 0 144 50" fill="none" xmlns="http://www.w3.org/2000/svg">
<rect width="50" height="50" rx="8" fill="url(#paint0_linear_60_1630)"/>
<path d="M23.52 38.54C22.848 38.516 22.188 38.36 21.54 38.072C20.892 37.784 20.364 37.34 19.956 36.74C19.284 36.332 18.78 35.816 18.444 35.192C18.108 34.544 17.976 33.8 18.048 32.96C18.216 31.184 18.384 29.288 18.552 27.272C18.744 25.232 18.924 22.988 19.092 20.54C19.284 18.092 19.44 15.356 19.56 12.332C19.608 12.14 19.752 12.008 19.992 11.936C20.256 11.864 20.544 11.816 20.856 11.792C21.432 11.792 22.032 11.996 22.656 12.404C23.28 12.812 23.808 13.424 24.24 14.24C24.672 15.056 24.888 16.076 24.888 17.3C24.888 19.508 24.744 21.968 24.456 24.68C24.168 27.392 23.88 30.392 23.592 33.68H23.7C24.468 33.128 25.296 32.636 26.184 32.204C27.072 31.772 27.924 31.556 28.74 31.556C29.22 31.556 29.76 31.688 30.36 31.952C30.96 32.192 31.488 32.516 31.944 32.924C32.4 33.308 32.628 33.74 32.628 34.22C32.628 34.532 32.484 34.748 32.196 34.868L23.52 38.54Z" fill="white"/>
<path d="M66.24 37.48C65.6427 37.4587 65.056 37.32 64.48 37.064C63.904 36.808 63.4347 36.4133 63.072 35.88C62.4747 35.5173 62.0267 35.0587 61.728 34.504C61.4293 33.928 61.312 33.2667 61.376 32.52C61.5253 30.9413 61.6747 29.256 61.824 27.464C61.9947 25.6507 62.1547 23.656 62.304 21.48C62.4747 19.304 62.6133 16.872 62.72 14.184C62.7627 14.0133 62.8907 13.896 63.104 13.832C63.3387 13.768 63.5947 13.7253 63.872 13.704C64.384 13.704 64.9173 13.8853 65.472 14.248C66.0267 14.6107 66.496 15.1547 66.88 15.88C67.264 16.6053 67.456 17.512 67.456 18.6C67.456 20.5627 67.328 22.7493 67.072 25.16C66.816 27.5707 66.56 30.2373 66.304 33.16H66.4C67.0827 32.6693 67.8187 32.232 68.608 31.848C69.3973 31.464 70.1547 31.272 70.88 31.272C71.3067 31.272 71.7867 31.3893 72.32 31.624C72.8533 31.8373 73.3227 32.1253 73.728 32.488C74.1333 32.8293 74.336 33.2133 74.336 33.64C74.336 33.9173 74.208 34.1093 73.952 34.216L66.24 37.48ZM82.6785 37.48C81.9745 37.48 81.2918 37.3413 80.6305 37.064C79.9905 36.808 79.4678 36.36 79.0625 35.72C78.0385 35.2293 77.2492 34.376 76.6945 33.16C76.1398 31.944 75.8625 30.5253 75.8625 28.904C75.8625 27.496 76.0545 26.1627 76.4385 24.904C76.8225 23.624 77.3452 22.4933 78.0065 21.512C78.6678 20.5307 79.4252 19.7627 80.2785 19.208C81.1532 18.632 82.0705 18.344 83.0305 18.344C83.8412 18.344 84.6518 18.4933 85.4625 18.792C86.2732 19.0693 86.9772 19.5813 87.5745 20.328C88.6198 20.8613 89.4198 21.64 89.9745 22.664C90.5505 23.688 90.8385 24.808 90.8385 26.024C90.8385 27.5813 90.6785 29.0533 90.3585 30.44C90.0385 31.8267 89.5478 33.0533 88.8865 34.12C88.2252 35.1653 87.3825 35.9867 86.3585 36.584C85.3345 37.1813 84.1078 37.48 82.6785 37.48ZM82.0385 33.96C82.6785 33.96 83.2438 33.6827 83.7345 33.128C84.2252 32.5733 84.6412 31.8693 84.9825 31.016C85.3238 30.1413 85.5798 29.2027 85.7505 28.2C85.9425 27.1973 86.0385 26.248 86.0385 25.352C86.0385 24.3707 85.9212 23.5493 85.6865 22.888C85.4732 22.2267 85.1212 21.896 84.6305 21.896C83.9905 21.896 83.4252 22.1733 82.9345 22.728C82.4438 23.2827 82.0278 23.9973 81.6865 24.872C81.3452 25.7253 81.0785 26.6533 80.8865 27.656C80.7158 28.6587 80.6305 29.608 80.6305 30.504C80.6305 31.4853 80.7478 32.3067 80.9825 32.968C81.2172 33.6293 81.5692 33.96 82.0385 33.96ZM96.4763 37.448C95.8576 37.448 95.2603 37.288 94.6843 36.968C94.1296 36.648 93.6709 36.2107 93.3083 35.656C92.9669 35.08 92.7963 34.4293 92.7963 33.704C92.7963 32.9147 92.8283 31.8693 92.8923 30.568C92.9563 29.2453 93.0309 27.784 93.1163 26.184C93.2229 24.584 93.3403 22.9733 93.4683 21.352C93.6176 19.7093 93.7669 18.1627 93.9163 16.712C94.0656 15.24 94.2149 14.0027 94.3643 13C94.4069 12.7867 94.4603 12.6053 94.5243 12.456C94.6096 12.2853 94.7909 12.2 95.0683 12.2C95.4309 12.2 95.8256 12.2853 96.2523 12.456C96.7003 12.6267 97.1269 12.8613 97.5323 13.16C97.9589 13.4587 98.2896 13.8 98.5243 14.184C98.7589 14.568 98.8443 14.9733 98.7803 15.4C98.6096 16.552 98.4389 17.9707 98.2683 19.656C98.1189 21.3413 97.9803 23.1227 97.8523 25C98.3643 24.3813 98.9083 23.6773 99.4843 22.888C100.06 22.0773 100.594 21.2987 101.084 20.552C101.596 19.784 101.991 19.1547 102.268 18.664C102.567 18.1093 102.972 17.832 103.484 17.832C104.039 17.832 104.551 18.1307 105.02 18.728C105.511 19.304 105.756 20.0293 105.756 20.904C105.756 21.16 105.724 21.4267 105.66 21.704C105.618 21.9813 105.532 22.2693 105.404 22.568C105.042 23.464 104.53 24.296 103.868 25.064C103.228 25.832 102.343 26.728 101.212 27.752C102.023 29.48 103.058 31.112 104.316 32.648C105.575 34.184 106.919 35.7413 108.348 37.32C108.455 37.4053 108.519 37.5013 108.54 37.608C108.583 37.736 108.604 37.8533 108.604 37.96C108.604 38.1093 108.551 38.248 108.444 38.376C108.338 38.504 108.178 38.568 107.964 38.568C106.919 38.568 105.874 38.3547 104.828 37.928C103.783 37.5013 102.898 36.872 102.172 36.04C101.746 35.5707 101.266 34.9947 100.732 34.312C100.199 33.6293 99.6549 32.9253 99.1003 32.2C98.5456 31.4533 98.0336 30.7493 97.5643 30.088C97.5003 31.432 97.4469 32.712 97.4043 33.928C97.3616 35.1227 97.3403 36.1787 97.3403 37.096C97.3403 37.3307 97.0523 37.448 96.4763 37.448ZM112.346 37.448C111.727 37.448 111.13 37.288 110.554 36.968C109.999 36.648 109.541 36.2107 109.178 35.656C108.837 35.08 108.666 34.4293 108.666 33.704C108.666 32.9147 108.698 31.8693 108.762 30.568C108.826 29.2453 108.901 27.784 108.986 26.184C109.093 24.584 109.21 22.9733 109.338 21.352C109.487 19.7093 109.637 18.1627 109.786 16.712C109.935 15.24 110.085 14.0027 110.234 13C110.277 12.7867 110.33 12.6053 110.394 12.456C110.479 12.2853 110.661 12.2 110.938 12.2C111.301 12.2 111.695 12.2853 112.122 12.456C112.57 12.6267 112.997 12.8613 113.402 13.16C113.829 13.4587 114.159 13.8 114.394 14.184C114.629 14.568 114.714 14.9733 114.65 15.4C114.479 16.552 114.309 17.9707 114.138 19.656C113.989 21.3413 113.85 23.1227 113.722 25C114.234 24.3813 114.778 23.6773 115.354 22.888C115.93 22.0773 116.463 21.2987 116.954 20.552C117.466 19.784 117.861 19.1547 118.138 18.664C118.437 18.1093 118.842 17.832 119.354 17.832C119.909 17.832 120.421 18.1307 120.89 18.728C121.381 19.304 121.626 20.0293 121.626 20.904C121.626 21.16 121.594 21.4267 121.53 21.704C121.487 21.9813 121.402 22.2693 121.274 22.568C120.911 23.464 120.399 24.296 119.738 25.064C119.098 25.832 118.213 26.728 117.082 27.752C117.893 29.48 118.927 31.112 120.186 32.648C121.445 34.184 122.789 35.7413 124.218 37.32C124.325 37.4053 124.389 37.5013 124.41 37.608C124.453 37.736 124.474 37.8533 124.474 37.96C124.474 38.1093 124.421 38.248 124.314 38.376C124.207 38.504 124.047 38.568 123.834 38.568C122.789 38.568 121.743 38.3547 120.698 37.928C119.653 37.5013 118.767 36.872 118.042 36.04C117.615 35.5707 117.135 34.9947 116.602 34.312C116.069 33.6293 115.525 32.9253 114.97 32.2C114.415 31.4533 113.903 30.7493 113.434 30.088C113.37 31.432 113.317 32.712 113.274 33.928C113.231 35.1227 113.21 36.1787 113.21 37.096C113.21 37.3307 112.922 37.448 112.346 37.448ZM128.632 37.448C128.077 37.448 127.49 37.3413 126.872 37.128C126.274 36.9147 125.762 36.6053 125.336 36.2C124.93 35.7947 124.728 35.304 124.728 34.728C124.728 34.3867 124.749 33.7787 124.792 32.904C124.834 32.0293 124.888 31.016 124.952 29.864C125.016 28.6907 125.09 27.4853 125.176 26.248C125.261 24.9893 125.357 23.7947 125.464 22.664C125.57 21.5333 125.666 20.5733 125.752 19.784C125.773 19.6133 125.88 19.5067 126.072 19.464C126.264 19.4 126.424 19.368 126.552 19.368C127.042 19.368 127.586 19.5067 128.184 19.784C128.781 20.0613 129.293 20.4133 129.72 20.84C130.168 21.2667 130.392 21.7147 130.392 22.184C130.392 22.4613 130.349 23.016 130.264 23.848C130.178 24.6587 130.072 25.6293 129.944 26.76C129.837 27.8907 129.72 29.0747 129.592 30.312C129.485 31.5493 129.389 32.7547 129.304 33.928C129.218 35.08 129.176 36.0827 129.176 36.936C129.176 37.0427 129.133 37.1493 129.048 37.256C128.962 37.384 128.824 37.448 128.632 37.448ZM129.08 16.2C128.376 16.2 127.725 16.1253 127.128 15.976C126.552 15.8053 126.093 15.5067 125.752 15.08C125.432 14.6533 125.293 14.0453 125.336 13.256C125.378 12.8507 125.432 12.4133 125.496 11.944C125.581 11.4533 125.858 11.1547 126.328 11.048C126.584 11.0053 126.893 10.9733 127.256 10.952C127.618 10.9307 127.938 10.92 128.216 10.92C128.813 10.92 129.474 11.016 130.2 11.208C130.562 11.2933 130.744 11.432 130.744 11.624C130.744 12.1147 130.669 12.6907 130.52 13.352C130.37 14.0133 130.21 14.92 130.04 16.072C129.698 16.1573 129.378 16.2 129.08 16.2ZM138.096 37.48C137.627 37.48 137.062 37.3307 136.4 37.032C135.76 36.7547 135.28 36.2533 134.96 35.528C134.406 35.1867 133.99 34.728 133.712 34.152C133.435 33.5547 133.296 32.8613 133.296 32.072C133.296 31.56 133.307 30.8133 133.328 29.832C133.35 28.8507 133.382 27.72 133.424 26.44C133.488 25.16 133.574 23.816 133.68 22.408C133.104 22.152 132.582 21.7787 132.112 21.288C131.664 20.776 131.44 20.36 131.44 20.04C131.44 19.784 131.483 19.5813 131.568 19.432C131.675 19.2827 131.867 19.1973 132.144 19.176C132.742 19.0907 133.36 19.016 134 18.952C134.086 18.2693 134.171 17.608 134.256 16.968C134.342 16.328 134.438 15.6987 134.544 15.08C134.608 14.7387 134.704 14.5147 134.832 14.408C134.96 14.28 135.142 14.216 135.376 14.216C136.016 14.216 136.635 14.376 137.232 14.696C137.851 15.016 138.352 15.3787 138.736 15.784C139.142 16.1893 139.323 16.52 139.28 16.776C139.174 17.416 139.088 18.0133 139.024 18.568C139.323 18.568 139.6 18.568 139.856 18.568C140.176 18.568 140.55 18.664 140.976 18.856C141.424 19.0267 141.851 19.2507 142.256 19.528C142.662 19.8053 143.003 20.104 143.28 20.424C143.558 20.7227 143.696 21 143.696 21.256C143.696 21.64 143.6 21.8853 143.408 21.992C143.216 22.0987 142.918 22.152 142.512 22.152C142.15 22.152 141.595 22.184 140.848 22.248C140.102 22.2907 139.312 22.344 138.48 22.408C138.246 24.2213 138.032 26.024 137.84 27.816C137.67 29.608 137.552 31.4107 137.488 33.224C138.299 32.9893 138.95 32.6693 139.44 32.264C139.931 31.8373 140.326 31.4427 140.624 31.08C140.944 30.696 141.243 30.4507 141.52 30.344C141.648 30.28 141.787 30.248 141.936 30.248C142.32 30.248 142.64 30.44 142.896 30.824C143.174 31.208 143.312 31.688 143.312 32.264C143.312 32.904 143.12 33.5333 142.736 34.152C142.374 34.7707 141.904 35.336 141.328 35.848C140.752 36.3387 140.176 36.7333 139.6 37.032C139.024 37.3307 138.523 37.48 138.096 37.48Z" fill="black"/>
<defs>
<linearGradient id="paint0_linear_60_1630" x1="-1.07288e-07" y1="16" x2="50" y2="36" gradientUnits="userSpaceOnUse">
<stop stop-color="#E6E6E6"/>
<stop offset="0.146552" stop-color="#ADA7E0"/>
<stop offset="1" stop-color="#3B27F4"/>
</linearGradient>
</defs>
</svg>
