<svg width="24" height="24" viewBox="0 0 24 24" fill="none" xmlns="http://www.w3.org/2000/svg">
<path d="M22.1019 9.26017L22.1018 9.26008L19.4965 7.77415L19.4729 7.76071L19.4728 7.73359L19.4625 4.79828C19.462 4.64221 19.4275 4.48811 19.3616 4.34664C19.2957 4.20517 19.1998 4.0797 19.0807 3.9789L19.1109 3.94312L19.0807 3.9789C18.0353 3.09443 16.8316 2.41626 15.5335 1.98037L15.5335 1.98035C15.3909 1.93227 15.2399 1.91455 15.0902 1.92832C14.9404 1.94209 14.7951 1.98705 14.6638 2.06031L12.0229 3.53498L12 3.54775L11.9771 3.53497L9.33621 2.05935L9.33617 2.05933C9.20463 1.98567 9.05911 1.94041 8.909 1.92649C8.75889 1.91256 8.60752 1.93027 8.46468 1.97847L8.46467 1.97847C7.16618 2.41618 5.96252 3.09625 4.91752 3.98261L4.91751 3.98262C4.79874 4.08331 4.70319 4.20852 4.63743 4.34966C4.57167 4.49079 4.53726 4.6445 4.53657 4.8002L4.52344 7.73833L4.52332 7.76543L4.49977 7.77884L1.89821 9.26103L1.89814 9.26107C1.76329 9.33759 1.64654 9.44229 1.55584 9.56803C1.46513 9.69378 1.40262 9.8376 1.37255 9.98971L1.37255 9.98974C1.10889 11.3179 1.10889 12.6849 1.37255 14.0131C1.40285 14.1648 1.46547 14.3083 1.55616 14.4337C1.64685 14.5591 1.76348 14.6635 1.89812 14.7398L1.89821 14.7399L4.50634 16.2258L4.52991 16.2393L4.53001 16.2664L4.54032 19.2017C4.54086 19.3578 4.57529 19.5119 4.64121 19.6533C4.70714 19.7948 4.80299 19.9203 4.92215 20.0211L4.89188 20.0569L4.92216 20.0211C5.96753 20.9056 7.17119 21.5837 8.4693 22.0196L8.46936 22.0196C8.61189 22.0677 8.76289 22.0854 8.91267 22.0717C9.06243 22.0579 9.20766 22.0129 9.33901 21.9397L22.1019 9.26017ZM22.1019 9.26017C22.2367 9.3364 22.3536 9.44078 22.4444 9.5662C22.5353 9.69162 22.598 9.83515 22.6284 9.98701C22.8927 11.315 22.8933 12.682 22.6303 14.0103L22.6303 14.0103C22.6002 14.1624 22.5377 14.3062 22.447 14.4319C22.3563 14.5577 22.2395 14.6624 22.1047 14.7389L22.1047 14.7389L19.4975 16.2211L19.4739 16.2345L19.4738 16.2617L19.4606 19.1998C19.4599 19.3555 19.4255 19.5092 19.3598 19.6503C19.294 19.7915 19.1985 19.9167 19.0797 20.0174L19.11 20.0531L19.0797 20.0174C18.0347 20.9037 16.831 21.5838 15.5325 22.0215L15.5475 22.0659L15.5325 22.0215C15.3897 22.0697 15.2383 22.0874 15.0882 22.0735C14.9381 22.0596 14.7926 22.0143 14.661 21.9407L14.661 21.9406L12.0229 20.465L12 20.4522L11.9771 20.465L9.33905 21.9397L22.1019 9.26017ZM20.5962 13.1177L20.576 13.1292L18.056 14.5617L18.0559 14.5617C17.8845 14.6589 17.7431 14.8015 17.6474 14.9738C17.5961 15.0688 17.542 15.1569 17.4867 15.246L17.4866 15.2461C17.3801 15.4161 17.3232 15.6125 17.3222 15.813L17.3091 18.6565L17.309 18.6797L17.2904 18.6937C16.6806 19.1526 16.0128 19.5288 15.3043 19.8126L15.2835 19.8209L15.264 19.81L12.7187 18.3859L12.7187 18.3859C12.5578 18.2958 12.3765 18.2485 12.1922 18.2484H12.165H12.1644H12.1638H12.1631H12.1625H12.1619H12.1612H12.1606H12.16H12.1594H12.1587H12.1581H12.1575H12.1569H12.1562H12.1556H12.155H12.1544H12.1537H12.1531H12.1525H12.1518H12.1512H12.1506H12.15H12.1493H12.1487H12.1481H12.1475H12.1468H12.1462H12.1456H12.1449H12.1443H12.1437H12.1431H12.1424H12.1418H12.1412H12.1406H12.1399H12.1393H12.1387H12.138H12.1374H12.1368H12.1362H12.1355H12.1349H12.1343H12.1336H12.133H12.1324H12.1318H12.1311H12.1305H12.1299H12.1292H12.1286H12.128H12.1274H12.1267H12.1261H12.1255H12.1248H12.1242H12.1236H12.123H12.1223H12.1217H12.1211H12.1204H12.1198H12.1192H12.1186H12.1179H12.1173H12.1167H12.116H12.1154H12.1148H12.1142H12.1135H12.1129H12.1123H12.1116H12.111H12.1104H12.1098H12.1091H12.1085H12.1079H12.1072H12.1066H12.106H12.1053H12.1047H12.1041H12.1035H12.1028H12.1022H12.1016H12.1009H12.1003H12.0997H12.099H12.0984H12.0978H12.0972H12.0965H12.0959H12.0953H12.0946H12.094H12.0934H12.0927H12.0921H12.0915H12.0909H12.0902H12.0896H12.089H12.0883H12.0877H12.0871H12.0864H12.0858H12.0852H12.0846H12.0839H12.0833H12.0827H12.082H12.0814H12.0808H12.0801H12.0795H12.0789H12.0783H12.0776H12.077H12.0764H12.0757H12.0751H12.0745H12.0738H12.0732H12.0726H12.0719H12.0713H12.0707H12.0701H12.0694H12.0688H12.0682H12.0675H12.0669H12.0663H12.0656H12.065H12.0644H12.0637H12.0631H12.0625H12.0619H12.0612H12.0606H12.06H12.0593H12.0587H12.0581H12.0574H12.0568H12.0562H12.0555H12.0549H12.0543H12.0536H12.053H12.0524H12.0518H12.0511H12.0505H12.0499H12.0492H12.0486H12.048H12.0473H12.0467H12.0461H12.0454H12.0448H12.0442H12.0435H12.0429H12.0423H12.0417H12.041H12.0404H12.0398H12.0391H12.0385H12.0379H12.0372H12.0366H12.036H12.0353H12.0347H12.0341H12.0334H12.0328H12.0322H12.0315H12.0309H12.0303H12.0297H12.029H12.0284H12.0278H12.0271H12.0265H12.0259H12.0252H12.0246H12.024H12.0233H12.0227H12.0221H12.0214H12.0208H12.0202H12.0195H12.0189H12.0183H12.0177H12.017H12.0164H12.0158H12.0151H12.0145H12.0139H12.0132H12.0126H12.012H12.0113H12.0107H12.0101H12.0094H12.0088H12.0082H12.0075H12.0069H12.0063H12.0057H12.005H12.0044H12.0038H12.0031H12.0025H12.0019H12.0012H12.0006H12H11.9993H11.9987H11.9981H11.9974H11.9968H11.9962H11.9955H11.9949H11.9943H11.9936H11.993H11.9924H11.9918H11.9911H11.9905H11.9899H11.9892H11.9886H11.988H11.9873H11.9867H11.9861H11.9854H11.9848H11.9842H11.9835H11.9829H11.9823H11.9816H11.981H11.9804H11.9798H11.9791H11.9785H11.9779H11.9772H11.9766H11.976H11.9753H11.9747H11.9741H11.9734H11.9728H11.9722H11.9715H11.9709H11.9703H11.9696H11.969H11.9684H11.9678H11.9671H11.9665H11.9659H11.9652H11.9646H11.964H11.9633H11.9627H11.9621H11.9614H11.9608H11.9602H11.9595H11.9589H11.9583H11.9577H11.957H11.9564H11.9558H11.9551H11.9545H11.9539H11.9532H11.9526H11.952H11.9513H11.9507H11.9501H11.9494H11.9488H11.9482H11.9476H11.9469H11.9463H11.9457H11.945H11.9444H11.9438H11.9431H11.9425H11.9419H11.9412H11.9406H11.94H11.9394H11.9387H11.9381H11.9375H11.9368H11.9362H11.9356H11.9349H11.9343H11.9337H11.933H11.9324H11.9318H11.9312H11.9305H11.9299H11.9293H11.9286H11.928H11.9274H11.9267H11.9261H11.9255H11.9248H11.9242H11.9236H11.923H11.9223H11.9217H11.9211H11.9204H11.9198H11.9192H11.9185H11.9179H11.9173H11.9167H11.916H11.9154H11.9148H11.9141H11.9135H11.9129H11.9122H11.9116H11.911H11.9104H11.9097H11.9091H11.9085H11.9078H11.9072H11.9066H11.9059H11.9053H11.9047H11.9041H11.9034H11.9028H11.9022H11.9015H11.9009H11.9003H11.8996H11.899H11.8984H11.8978H11.8971H11.8965H11.8959H11.8952H11.8946H11.894H11.8934H11.8927H11.8921H11.8915H11.8908H11.8902H11.8896H11.889H11.8883H11.8877H11.8871H11.8864H11.8858H11.8852H11.8846H11.8839H11.8833H11.8827H11.882H11.8814H11.8808H11.8802H11.8795H11.8789H11.8783H11.8776H11.877H11.8764H11.8758H11.8751H11.8745H11.8739H11.8732H11.8726H11.872H11.8714H11.8707H11.8701H11.8695H11.8688H11.8682H11.8676H11.867H11.8663H11.8657H11.8651H11.8645H11.8638H11.8632H11.8626H11.8619H11.8613H11.8607H11.8601H11.8594H11.8588H11.8582H11.8575H11.8569H11.8563H11.8557H11.855H11.8544H11.8538H11.8532H11.8525H11.8519H11.8513H11.8507H11.85H11.8494H11.8488H11.8481H11.8475H11.8469H11.8463H11.8456H11.845H11.8444H11.8438H11.8431H11.8425H11.8414C11.6487 18.2439 11.4582 18.2907 11.2896 18.3841L8.74159 19.8053L8.72213 19.8162L8.70143 19.8079C7.99181 19.5256 7.32248 19.151 6.7107 18.6938L6.69197 18.6798L6.69188 18.6564L6.68157 15.8214C6.68074 15.6205 6.62379 15.4239 6.51716 15.2536L6.51699 15.2534C6.46242 15.1649 6.40767 15.0734 6.35659 14.9816C6.26079 14.8103 6.11972 14.6686 5.94882 14.5721L5.94863 14.5719L3.42675 13.131L3.40666 13.1195L3.40356 13.0966C3.30502 12.3695 3.30502 11.6324 3.40356 10.9053L3.40667 10.8823L3.42684 10.8708L5.94684 9.4383L5.94687 9.43829C6.11806 9.3411 6.25937 9.1989 6.35549 9.0271C6.35554 9.027 6.3556 9.02691 6.35565 9.02681L6.39657 9.04968L20.5962 13.1177ZM20.5962 13.1177L20.5993 13.0947C20.6972 12.3662 20.6963 11.6278 20.5964 10.8996L20.5933 10.8767L20.5732 10.8652L18.0513 9.42802L18.0512 9.42793C17.8803 9.33137 17.7392 9.18968 17.6434 9.01836L17.6025 9.04124L17.6435 9.01844C17.5924 8.92668 17.5376 8.8351 17.483 8.74663L17.4829 8.74636C17.3762 8.5761 17.3193 8.37944 17.3184 8.17857L17.3081 5.34357L17.308 5.32019L17.2893 5.30619C16.6775 4.84902 16.0082 4.47442 15.2986 4.19206L15.2779 4.18382L15.2584 4.1947L12.7104 5.61868C12.7104 5.6187 12.7103 5.61872 12.7103 5.61874C12.5417 5.71212 12.3513 5.75894 12.1586 5.75438L12.1586 5.75437H12.1575H12.1569H12.1563H12.1556H12.155H12.1544H12.1537H12.1531H12.1525H12.1519H12.1512H12.1506H12.15H12.1494H12.1487H12.1481H12.1475H12.1469H12.1462H12.1456H12.145H12.1443H12.1437H12.1431H12.1425H12.1418H12.1412H12.1406H12.14H12.1393H12.1387H12.1381H12.1374H12.1368H12.1362H12.1356H12.1349H12.1343H12.1337H12.1331H12.1324H12.1318H12.1312H12.1305H12.1299H12.1293H12.1287H12.128H12.1274H12.1268H12.1261H12.1255H12.1249H12.1243H12.1236H12.123H12.1224H12.1217H12.1211H12.1205H12.1199H12.1192H12.1186H12.118H12.1173H12.1167H12.1161H12.1155H12.1148H12.1142H12.1136H12.1129H12.1123H12.1117H12.1111H12.1104H12.1098H12.1092H12.1085H12.1079H12.1073H12.1067H12.106H12.1054H12.1048H12.1041H12.1035H12.1029H12.1023H12.1016H12.101H12.1004H12.0997H12.0991H12.0985H12.0978H12.0972H12.0966H12.096H12.0953H12.0947H12.0941H12.0934H12.0928H12.0922H12.0915H12.0909H12.0903H12.0897H12.089H12.0884H12.0878H12.0871H12.0865H12.0859H12.0852H12.0846H12.084H12.0834H12.0827H12.0821H12.0815H12.0808H12.0802H12.0796H12.0789H12.0783H12.0777H12.0771H12.0764H12.0758H12.0752H12.0745H12.0739H12.0733H12.0726H12.072H12.0714H12.0708H12.0701H12.0695H12.0689H12.0682H12.0676H12.067H12.0663H12.0657H12.0651H12.0644H12.0638H12.0632H12.0626H12.0619H12.0613H12.0607H12.06H12.0594H12.0588H12.0581H12.0575H12.0569H12.0562H12.0556H12.055H12.0544H12.0537H12.0531H12.0525H12.0518H12.0512H12.0506H12.0499H12.0493H12.0487H12.048H12.0474H12.0468H12.0461H12.0455H12.0449H12.0443H12.0436H12.043H12.0424H12.0417H12.0411H12.0405H12.0398H12.0392H12.0386H12.0379H12.0373H12.0367H12.036H12.0354H12.0348H12.0342H12.0335H12.0329H12.0323H12.0316H12.031H12.0304H12.0297H12.0291H12.0285H12.0278H12.0272H12.0266H12.0259H12.0253H12.0247H12.024H12.0234H12.0228H12.0222H12.0215H12.0209H12.0203H12.0196H12.019H12.0184H12.0177H12.0171H12.0165H12.0158H12.0152H12.0146H12.0139H12.0133H12.0127H12.012H12.0114H12.0108H12.0102H12.0095H12.0089H12.0083H12.0076H12.007H12.0064H12.0057H12.0051H12.0045H12.0038H12.0032H12.0026H12.0019H12.0013H12.0007H12H11.9994H11.9988H11.9982H11.9975H11.9969H11.9963H11.9956H11.995H11.9944H11.9937H11.9931H11.9925H11.9918H11.9912H11.9906H11.9899H11.9893H11.9887H11.988H11.9874H11.9868H11.9861H11.9855H11.9849H11.9843H11.9836H11.983H11.9824H11.9817H11.9811H11.9805H11.9798H11.9792H11.9786H11.9779H11.9773H11.9767H11.976H11.9754H11.9748H11.9741H11.9735H11.9729H11.9723H11.9716H11.971H11.9704H11.9697H11.9691H11.9685H11.9678H11.9672H11.9666H11.9659H11.9653H11.9647H11.964H11.9634H11.9628H11.9621H11.9615H11.9609H11.9603H11.9596H11.959H11.9584H11.9577H11.9571H11.9565H11.9558H11.9552H11.9546H11.9539H11.9533H11.9527H11.952H11.9514H11.9508H11.9502H11.9495H11.9489H11.9483H11.9476H11.947H11.9464H11.9457H11.9451H11.9445H11.9438H11.9432H11.9426H11.9419H11.9413H11.9407H11.9401H11.9394H11.9388H11.9382H11.9375H11.9369H11.9363H11.9356H11.935H11.9344H11.9337H11.9331H11.9325H11.9319H11.9312H11.9306H11.93H11.9293H11.9287H11.9281H11.9274H11.9268H11.9262H11.9255H11.9249H11.9243H11.9237H11.923H11.9224H11.9218H11.9211H11.9205H11.9199H11.9192H11.9186H11.918H11.9173H11.9167H11.9161H11.9155H11.9148H11.9142H11.9136H11.9129H11.9123H11.9117H11.911H11.9104H11.9098H11.9092H11.9085H11.9079H11.9073H11.9066H11.906H11.9054H11.9047H11.9041H11.9035H11.9029H11.9022H11.9016H11.901H11.9003H11.8997H11.8991H11.8984H11.8978H11.8972H11.8966H11.8959H11.8953H11.8947H11.894H11.8934H11.8928H11.8921H11.8915H11.8909H11.8903H11.8896H11.889H11.8884H11.8877H11.8871H11.8865H11.8859H11.8852H11.8846H11.884H11.8833H11.8827H11.8821H11.8815H11.8808H11.8802H11.8796H11.8789H11.8783H11.8777H11.8771H11.8764H11.8758H11.8752H11.8745H11.8739H11.8733H11.8727H11.872H11.8714H11.8708H11.8701H11.8695H11.8689H11.8683H11.8676H11.867H11.8664H11.8657H11.8651H11.8645H11.8639H11.8632H11.8626H11.862H11.8613H11.8607H11.8601H11.8595H11.8588H11.8582H11.8576H11.8569H11.8563H11.8557H11.8551H11.8544H11.8538H11.8532H11.8526H11.8519H11.8513H11.8507H11.85H11.8494H11.8488H11.8482H11.8475H11.8469H11.8463H11.8457H11.845H11.8444H11.8438H11.8432H11.8425H11.8419H11.8413H11.8406H11.84H11.8394H11.8388H11.8381H11.8375H11.8369H11.8363H11.8356H11.835V5.75435L11.8338 5.75438C11.6407 5.75953 11.4498 5.71236 11.2814 5.61786L11.2813 5.61783L8.73602 4.19377L8.71652 4.18286L8.69576 4.19114C7.98751 4.47374 7.31971 4.84868 6.70969 5.30624L6.69103 5.32024L6.69095 5.34357L6.68063 8.18695L20.5962 13.1177ZM17.4469 15.2212C17.5022 15.1322 17.5556 15.045 17.6063 14.9512L17.4469 15.2212ZM17.4469 15.2212C17.3358 15.3986 17.2764 15.6035 17.2753 15.8128M17.4469 15.2212L17.2753 15.8128M17.2753 15.8128L17.2622 18.6562L17.2753 15.8128ZM4.47657 7.73812L1.87501 9.2203L8.91333 1.87981C8.75669 1.86528 8.59875 1.88376 8.44969 1.93405C7.14559 2.37366 5.93672 3.05667 4.88719 3.94687C4.76326 4.05193 4.66356 4.18259 4.59494 4.32986C4.52632 4.47713 4.49042 4.63752 4.48969 4.79999L4.47657 7.73812ZM9.31765 7.98555C10.1116 7.45504 11.0451 7.17188 12 7.17187C13.28 7.17334 14.5072 7.6825 15.4124 8.58764C16.3175 9.49278 16.8267 10.72 16.8281 12C16.8281 12.9549 16.545 13.8884 16.0144 14.6824C15.4839 15.4763 14.7299 16.0952 13.8477 16.4606C12.9654 16.826 11.9947 16.9216 11.0581 16.7353C10.1215 16.5491 9.26123 16.0892 8.58601 15.414C7.91078 14.7388 7.45095 13.8785 7.26465 12.9419C7.07836 12.0053 7.17397 11.0346 7.5394 10.1523C7.90483 9.27012 8.52366 8.51607 9.31765 7.98555ZM10.5156 14.2216C10.955 14.5152 11.4716 14.6719 12 14.6719C12.7086 14.6719 13.3882 14.3904 13.8893 13.8893C14.3904 13.3882 14.6719 12.7086 14.6719 12C14.6719 11.4715 14.5152 10.955 14.2216 10.5156C13.928 10.0762 13.5107 9.73373 13.0225 9.5315C12.5343 9.32927 11.997 9.27636 11.4788 9.37946C10.9605 9.48255 10.4844 9.73702 10.1107 10.1107C9.73704 10.4844 9.48257 10.9604 9.37947 11.4787C9.27638 11.997 9.32929 12.5343 9.53152 13.0225C9.73374 13.5107 10.0762 13.928 10.5156 14.2216Z" fill="#475569" stroke="#475569" stroke-width="0.09375"/>
</svg>
