<svg width="24" height="24" viewBox="0 0 24 24" fill="none" xmlns="http://www.w3.org/2000/svg">
<path d="M5.25 22.875L5.25004 22.8281C4.95791 22.8279 4.6701 22.7576 4.4107 22.6233C4.1513 22.4889 3.92788 22.2944 3.75914 22.0559C3.59041 21.8175 3.48128 21.542 3.44089 21.2527C3.40051 20.9634 3.43005 20.6686 3.52704 20.393L3.52723 20.3925L6.3566 12.015L6.36167 12L6.3566 11.985L3.52723 3.60748L3.52723 3.60748L3.52706 3.60698C3.40434 3.25661 3.3912 2.87717 3.4894 2.51915C3.58759 2.16113 3.79246 1.84149 4.07675 1.60274C4.36105 1.36399 4.71129 1.21746 5.0809 1.18263C5.45044 1.1478 5.82183 1.22629 6.14568 1.40766C6.14574 1.40769 6.14579 1.40772 6.14585 1.40775L21.9011 10.3982L21.9119 10.4044H21.9157C22.1925 10.5635 22.4229 10.7924 22.5838 11.0684C22.7467 11.3479 22.8326 11.6657 22.8326 11.9892C22.8326 12.3127 22.7467 12.6305 22.5838 12.91C22.4208 13.1895 22.1866 13.4207 21.905 13.5801L21.9049 13.5802L6.15486 22.5868L6.15481 22.5867L6.15213 22.5885L6.14517 22.5931C5.8717 22.7465 5.5635 22.8274 5.24991 22.8281L5.25 22.875ZM5.25 22.875C5.5722 22.8743 5.88885 22.791 6.16969 22.6331L6.16875 1.36685C5.83656 1.18077 5.45558 1.10023 5.0765 1.13596C4.69741 1.17168 4.33819 1.32197 4.04661 1.56684C3.75502 1.81171 3.5449 2.13955 3.44419 2.50675C3.34348 2.87396 3.35695 3.26312 3.48282 3.62248L6.31219 12L3.48282 20.3775C3.38334 20.6601 3.35305 20.9624 3.39447 21.2592C3.43589 21.5559 3.54782 21.8384 3.72088 22.083C3.89394 22.3276 4.12309 22.5271 4.38914 22.6649C4.65519 22.8027 4.95039 22.8747 5.25 22.875ZM5.87966 20.1656L5.84014 20.2826L5.94734 20.2213L20.2677 12.0304L20.3389 11.9896L20.2676 11.949L5.94636 3.77677L5.83925 3.71565L5.87872 3.83248L8.26278 10.89L8.27355 10.9219H8.30719H13.5C13.7859 10.9219 14.0602 11.0354 14.2624 11.2376C14.4645 11.4398 14.5781 11.714 14.5781 12C14.5781 12.2859 14.4645 12.5601 14.2624 12.7623C14.0602 12.9645 13.7859 13.0781 13.5 13.0781H8.30719H8.27355L8.26278 13.11L5.87966 20.1656Z" fill="#4F46E5" stroke="#4F46E5" stroke-width="0.09375"/>
</svg>
