<svg width="17" height="17" viewBox="0 0 17 17" fill="none" xmlns="http://www.w3.org/2000/svg">
<path d="M16.4664 9.89062C16.3461 9.77011 16.1953 9.68463 16.0302 9.64334C15.865 9.60205 15.6917 9.60651 15.5289 9.65625C14.3915 9.99962 13.1822 10.028 12.03 9.73847C10.8777 9.4489 9.82553 8.8522 8.98557 8.01192C8.14561 7.17164 7.54931 6.11926 7.26018 4.96687C6.97106 3.81448 6.99994 2.60524 7.34374 1.46797C7.3939 1.30508 7.3987 1.1316 7.35763 0.966184C7.31657 0.800771 7.23118 0.649681 7.11067 0.529165C6.99015 0.408649 6.83906 0.323266 6.67365 0.282199C6.50823 0.241133 6.33475 0.245935 6.17187 0.296091C4.46124 0.821869 2.96006 1.87387 1.88202 3.30234C0.939291 4.55538 0.364392 6.04634 0.221834 7.60792C0.0792769 9.16951 0.374701 10.7399 1.07496 12.1429C1.77522 13.546 2.8526 14.7261 4.18622 15.5509C5.51983 16.3757 7.05692 16.8126 8.62499 16.8125C10.4557 16.8179 12.2377 16.2226 13.6976 15.118C15.1254 14.0389 16.1763 12.5368 16.7008 10.8258C16.7501 10.6633 16.7543 10.4905 16.713 10.3258C16.6717 10.1611 16.5865 10.0107 16.4664 9.89062ZM12.5695 13.6203C11.3059 14.5716 9.74111 15.0345 8.16327 14.9238C6.58542 14.8131 5.10065 14.1362 3.98221 13.0178C2.86376 11.8993 2.1869 10.4146 2.07619 8.83672C1.96548 7.25888 2.42837 5.69414 3.37968 4.43047C3.88025 3.76833 4.50062 3.206 5.20858 2.77265C5.19452 2.97265 5.18749 3.17344 5.18749 3.375C5.18997 5.612 6.07972 7.75667 7.66152 9.33847C9.24332 10.9203 11.388 11.81 13.625 11.8125C13.8266 11.8125 14.0273 11.8055 14.2273 11.7914C13.7942 12.4995 13.2318 13.1199 12.5695 13.6203Z" fill="#4F46E5"/>
</svg>
