<svg width="25" height="24" viewBox="0 0 25 24" fill="none" xmlns="http://www.w3.org/2000/svg">
<path d="M5.33003 14.93L15.43 4.82998C15.523 4.73625 15.6336 4.66186 15.7555 4.61109C15.8773 4.56032 16.008 4.53418 16.14 4.53418C16.272 4.53418 16.4027 4.56032 16.5246 4.61109C16.6465 4.66186 16.7571 4.73625 16.85 4.82998L19.67 7.64998C19.7638 7.74294 19.8382 7.85354 19.8889 7.9754C19.9397 8.09726 19.9658 8.22797 19.9658 8.35998C19.9658 8.49199 19.9397 8.6227 19.8889 8.74455C19.8382 8.86641 19.7638 8.97701 19.67 9.06998L9.57003 19.17C9.47741 19.2645 9.36697 19.3396 9.24509 19.3911C9.12322 19.4426 8.99234 19.4694 8.86003 19.47H6.03003C5.76481 19.47 5.51046 19.3646 5.32292 19.1771C5.13539 18.9895 5.03003 18.7352 5.03003 18.47V15.64C5.03058 15.5077 5.05738 15.3768 5.10887 15.2549C5.16037 15.133 5.23554 15.0226 5.33003 14.93Z" stroke="#000D26" stroke-width="1.5" stroke-linecap="round" stroke-linejoin="round"/>
<path d="M13 7.26001L17.24 11.5" stroke="#000D26" stroke-width="1.5" stroke-linecap="round" stroke-linejoin="round"/>
</svg>
