<svg width="18" height="18" viewBox="0 0 18 18" fill="none" xmlns="http://www.w3.org/2000/svg">
<path d="M0.93681 8.49923C1.03523 8.5733 1.14728 8.62725 1.26657 8.65799C1.38585 8.68874 1.51002 8.69568 1.63198 8.67841C1.75395 8.66114 1.87131 8.62001 1.97737 8.55736C2.08343 8.49471 2.1761 8.41177 2.25009 8.31329C2.59938 7.84741 3.05236 7.46926 3.57314 7.20881C4.09392 6.94836 4.6682 6.81277 5.25048 6.81277C5.83276 6.81277 6.40704 6.94836 6.92782 7.20881C7.44861 7.46926 7.90159 7.84741 8.25087 8.31329C8.40017 8.51208 8.62232 8.64343 8.86846 8.67844C9.11459 8.71346 9.36456 8.64928 9.56337 8.50001C9.63367 8.44665 9.69624 8.38381 9.74931 8.31329C10.0986 7.84741 10.5516 7.46926 11.0724 7.20881C11.5931 6.94836 12.1674 6.81277 12.7497 6.81277C13.332 6.81277 13.9063 6.94836 14.427 7.20881C14.9478 7.46926 15.4008 7.84741 15.7501 8.31329C15.8233 8.4135 15.9158 8.49817 16.022 8.56239C16.1282 8.6266 16.2462 8.66908 16.3689 8.68735C16.4917 8.70563 16.6169 8.69934 16.7372 8.66885C16.8576 8.63836 16.9706 8.58428 17.0699 8.50974C17.1692 8.4352 17.2526 8.34169 17.3155 8.23464C17.3783 8.12759 17.4193 8.00912 17.4359 7.88612C17.4526 7.76312 17.4447 7.63802 17.4127 7.5181C17.3807 7.39817 17.3251 7.2858 17.2493 7.18751C16.7278 6.48924 16.0511 5.92171 15.2727 5.5297C15.6134 5.06382 15.8183 4.51272 15.8649 3.93748C15.9115 3.36225 15.7978 2.78535 15.5366 2.27075C15.2754 1.75614 14.8767 1.32393 14.3849 1.02202C13.8931 0.720104 13.3272 0.56029 12.7501 0.56029C12.173 0.56029 11.6071 0.720104 11.1153 1.02202C10.6234 1.32393 10.2248 1.75614 9.96357 2.27075C9.70234 2.78535 9.58871 3.36225 9.63528 3.93748C9.68186 4.51272 9.88682 5.06382 10.2274 5.5297C9.78257 5.7528 9.36975 6.03475 9.00009 6.36798C8.63048 6.03448 8.21766 5.75226 7.77275 5.52891C8.11337 5.06304 8.31832 4.51194 8.3649 3.9367C8.41147 3.36147 8.29784 2.78457 8.03661 2.26997C7.77538 1.75536 7.37674 1.32315 6.8849 1.02123C6.39305 0.719323 5.82721 0.559509 5.25009 0.559509C4.67298 0.559509 4.10713 0.719323 3.61529 1.02123C3.12344 1.32315 2.7248 1.75536 2.46357 2.26997C2.20234 2.78457 2.08871 3.36147 2.13528 3.9367C2.18186 4.51194 2.38682 5.06304 2.72743 5.52891C1.94905 5.92093 1.2724 6.48846 0.750872 7.18673C0.601522 7.38545 0.537209 7.63535 0.572077 7.88148C0.606946 8.12761 0.73814 8.34981 0.93681 8.49923ZM12.7501 2.43751C12.9973 2.43751 13.239 2.51082 13.4446 2.64817C13.6501 2.78552 13.8103 2.98075 13.9049 3.20915C13.9995 3.43756 14.0243 3.68889 13.9761 3.93137C13.9278 4.17385 13.8088 4.39658 13.634 4.57139C13.4592 4.74621 13.2364 4.86526 12.994 4.91349C12.7515 4.96172 12.5001 4.93697 12.2717 4.84236C12.0433 4.74775 11.8481 4.58753 11.7108 4.38197C11.5734 4.17641 11.5001 3.93473 11.5001 3.68751C11.5001 3.35599 11.6318 3.03805 11.8662 2.80362C12.1006 2.5692 12.4186 2.43751 12.7501 2.43751ZM5.25009 2.43751C5.49732 2.43751 5.73899 2.51082 5.94455 2.64817C6.15012 2.78552 6.31033 2.98075 6.40494 3.20915C6.49955 3.43756 6.5243 3.68889 6.47607 3.93137C6.42784 4.17385 6.30879 4.39658 6.13397 4.57139C5.95916 4.74621 5.73643 4.86526 5.49395 4.91349C5.25148 4.96172 5.00014 4.93697 4.77174 4.84236C4.54333 4.74775 4.34811 4.58753 4.21075 4.38197C4.0734 4.17641 4.00009 3.93473 4.00009 3.68751C4.00009 3.35599 4.13179 3.03805 4.36621 2.80362C4.60063 2.5692 4.91857 2.43751 5.25009 2.43751ZM15.2727 14.2789C15.6134 13.813 15.8183 13.2619 15.8649 12.6867C15.9115 12.1115 15.7978 11.5346 15.5366 11.02C15.2754 10.5054 14.8767 10.0731 14.3849 9.77123C13.8931 9.46932 13.3272 9.30951 12.7501 9.30951C12.173 9.30951 11.6071 9.46932 11.1153 9.77123C10.6234 10.0731 10.2248 10.5054 9.96357 11.02C9.70234 11.5346 9.58871 12.1115 9.63528 12.6867C9.68186 13.2619 9.88682 13.813 10.2274 14.2789C9.78272 14.5023 9.36993 14.7842 9.00009 15.1172C8.63025 14.7842 8.21747 14.5023 7.77275 14.2789C8.11337 13.813 8.31832 13.2619 8.3649 12.6867C8.41147 12.1115 8.29784 11.5346 8.03661 11.02C7.77538 10.5054 7.37674 10.0731 6.8849 9.77123C6.39305 9.46932 5.82721 9.30951 5.25009 9.30951C4.67298 9.30951 4.10713 9.46932 3.61529 9.77123C3.12344 10.0731 2.7248 10.5054 2.46357 11.02C2.20234 11.5346 2.08871 12.1115 2.13528 12.6867C2.18186 13.2619 2.38682 13.813 2.72743 14.2789C1.94905 14.6709 1.2724 15.2385 0.750872 15.9367C0.601481 16.1355 0.537185 16.3855 0.572128 16.6318C0.607071 16.878 0.738392 17.1002 0.937201 17.2496C1.13601 17.399 1.38602 17.4633 1.63224 17.4284C1.87845 17.3934 2.1007 17.2621 2.25009 17.0633C2.59938 16.5974 3.05236 16.2193 3.57314 15.9588C4.09392 15.6984 4.6682 15.5628 5.25048 15.5628C5.83276 15.5628 6.40704 15.6984 6.92782 15.9588C7.44861 16.2193 7.90159 16.5974 8.25087 17.0633C8.40017 17.2621 8.62232 17.3934 8.86846 17.4284C9.11459 17.4635 9.36456 17.3993 9.56337 17.25C9.63367 17.1966 9.69624 17.1338 9.74931 17.0633C10.0986 16.5974 10.5516 16.2193 11.0724 15.9588C11.5931 15.6984 12.1674 15.5628 12.7497 15.5628C13.332 15.5628 13.9063 15.6984 14.427 15.9588C14.9478 16.2193 15.4008 16.5974 15.7501 17.0633C15.8233 17.1635 15.9158 17.2482 16.022 17.3124C16.1282 17.3766 16.2462 17.4191 16.3689 17.4374C16.4917 17.4556 16.6169 17.4493 16.7372 17.4188C16.8576 17.3884 16.9706 17.3343 17.0699 17.2597C17.1692 17.1852 17.2526 17.0917 17.3155 16.9846C17.3783 16.8776 17.4193 16.7591 17.4359 16.6361C17.4526 16.5131 17.4447 16.388 17.4127 16.2681C17.3807 16.1482 17.3251 16.0358 17.2493 15.9375C16.7281 15.2388 16.0514 14.6709 15.2727 14.2789ZM5.25009 11.1875C5.49732 11.1875 5.73899 11.2608 5.94455 11.3982C6.15012 11.5355 6.31033 11.7307 6.40494 11.9592C6.49955 12.1876 6.5243 12.4389 6.47607 12.6814C6.42784 12.9238 6.30879 13.1466 6.13397 13.3214C5.95916 13.4962 5.73643 13.6153 5.49395 13.6635C5.25148 13.7117 5.00014 13.687 4.77174 13.5924C4.54333 13.4977 4.34811 13.3375 4.21075 13.132C4.0734 12.9264 4.00009 12.6847 4.00009 12.4375C4.00009 12.106 4.13179 11.788 4.36621 11.5536C4.60063 11.3192 4.91857 11.1875 5.25009 11.1875ZM12.7501 11.1875C12.9973 11.1875 13.239 11.2608 13.4446 11.3982C13.6501 11.5355 13.8103 11.7307 13.9049 11.9592C13.9995 12.1876 14.0243 12.4389 13.9761 12.6814C13.9278 12.9238 13.8088 13.1466 13.634 13.3214C13.4592 13.4962 13.2364 13.6153 12.994 13.6635C12.7515 13.7117 12.5001 13.687 12.2717 13.5924C12.0433 13.4977 11.8481 13.3375 11.7108 13.132C11.5734 12.9264 11.5001 12.6847 11.5001 12.4375C11.5001 12.106 11.6318 11.788 11.8662 11.5536C12.1006 11.3192 12.4186 11.1875 12.7501 11.1875Z" fill="#4F46E5"/>
</svg>
