<svg width="19" height="21" viewBox="0 0 19 21" fill="none" xmlns="http://www.w3.org/2000/svg">
<path d="M2.30528 10.5591L2.30532 10.5591L11.5078 1.38194L11.5078 1.3819C12.2026 0.687536 13.1447 0.297591 14.1269 0.297852C14.6133 0.297981 15.0948 0.393904 15.5441 0.580144C15.9934 0.766384 16.4016 1.03929 16.7454 1.38329C17.0892 1.72729 17.3619 2.13564 17.5479 2.58502C17.7339 3.03441 17.8296 3.51603 17.8295 4.00239C17.8294 4.48874 17.7334 4.97031 17.5472 5.4196C17.361 5.86866 17.0883 6.27668 16.7446 6.62039C16.7444 6.62056 16.7442 6.62073 16.744 6.62091L16.7291 6.63492L16.7287 6.63529L7.7475 15.2809C7.64544 15.3791 7.52505 15.4562 7.3932 15.5078C7.26134 15.5594 7.12061 15.5846 6.97903 15.5818C6.83745 15.5791 6.6978 15.5485 6.56806 15.4918C6.43831 15.435 6.32101 15.3533 6.22284 15.2513C6.12468 15.1492 6.04758 15.0288 5.99594 14.8969C5.9443 14.7651 5.91915 14.6244 5.9219 14.4828C5.92465 14.3412 5.95526 14.2016 6.01199 14.0718C6.06871 13.9421 6.15043 13.8248 6.25249 13.7266L6.2525 13.7266L15.2253 5.09033L15.2253 5.09034L15.2261 5.0896C15.5153 4.79858 15.6771 4.40458 15.6758 3.99428C15.6745 3.58397 15.5103 3.19098 15.2193 2.90175C15.0752 2.75854 14.9043 2.64511 14.7164 2.56795C14.5284 2.49078 14.3271 2.45139 14.124 2.45202C13.7137 2.45328 13.3207 2.61749 13.0314 2.90852L3.82909 12.0827L3.82903 12.0828C3.18733 12.7248 2.82692 13.5953 2.8271 14.503C2.82719 14.9525 2.9158 15.3975 3.08787 15.8127C3.25995 16.2279 3.51212 16.6051 3.82998 16.9228C4.14785 17.2406 4.52518 17.4926 4.94044 17.6645C5.3557 17.8364 5.80076 17.9249 6.2502 17.9248C7.15787 17.9246 8.0283 17.5638 8.67 16.9219C8.67001 16.9219 8.67002 16.9219 8.67002 16.9219L16.3631 9.23441L16.3631 9.23439C16.4634 9.1341 16.5825 9.05454 16.7135 9.00026C16.8446 8.94598 16.985 8.91805 17.1269 8.91805C17.2687 8.91805 17.4092 8.94598 17.5402 9.00026C17.6712 9.05454 17.7903 9.1341 17.8906 9.23439C17.9909 9.33469 18.0704 9.45375 18.1247 9.5848C18.179 9.71584 18.2069 9.85629 18.2069 9.99812C18.2069 10.14 18.179 10.2804 18.1247 10.4115C18.0721 10.5385 17.9957 10.6544 17.8996 10.7527L17.896 10.7536L17.8869 10.7628L10.1937 18.4503L10.2269 18.4834M2.30528 10.5591L2.27218 10.5259C1.21695 11.5808 0.623982 13.0116 0.623718 14.5037C0.623455 15.9957 1.21592 17.4268 2.27078 18.482C3.32563 19.5373 4.75647 20.1302 6.24853 20.1305C7.74059 20.1308 9.17164 19.5383 10.2269 18.4834M2.30528 10.5591C1.25887 11.6052 0.670855 13.0241 0.670593 14.5037C0.670332 15.9833 1.25786 17.4025 2.30393 18.4489C3.35 19.4953 4.76891 20.0834 6.24854 20.0836C7.72817 20.0839 9.14729 19.4964 10.1937 18.4503L10.2269 18.4834M2.30528 10.5591L10.2269 18.4834" fill="#475569" stroke="#475569" stroke-width="0.09375"/>
</svg>
