<svg width="20" height="20" viewBox="0 0 20 20" fill="none" xmlns="http://www.w3.org/2000/svg">
<path d="M18.7884 8.08752L12.5384 1.83752C12.4073 1.7063 12.2403 1.61691 12.0584 1.58065C11.8765 1.54439 11.688 1.5629 11.5166 1.63382C11.3452 1.70474 11.1988 1.82489 11.0957 1.97908C10.9926 2.13327 10.9376 2.31456 10.9376 2.50002V5.37033C8.92512 5.61408 6.74543 6.61174 4.94152 8.14142C2.66339 10.0742 1.24464 12.5703 0.946207 15.1727C0.915974 15.4338 0.968844 15.6979 1.0973 15.9272C1.22575 16.1566 1.42326 16.3396 1.66172 16.4503C1.90018 16.5609 2.16746 16.5936 2.42556 16.5436C2.68365 16.4937 2.91942 16.3636 3.09933 16.1719C3.91652 15.3016 6.77121 12.5985 10.9376 12.2328V15C10.9378 15.1853 10.9929 15.3664 11.0959 15.5204C11.1989 15.6745 11.3453 15.7945 11.5165 15.8654C11.6877 15.9363 11.876 15.9548 12.0578 15.9187C12.2395 15.8826 12.4065 15.7935 12.5376 15.6625L18.7876 9.41252C18.9633 9.23684 19.062 8.99862 19.0622 8.75018C19.0623 8.50174 18.9639 8.2634 18.7884 8.08752ZM12.8126 12.7344V11.25C12.8126 11.0014 12.7138 10.7629 12.538 10.5871C12.3622 10.4113 12.1238 10.3125 11.8751 10.3125C8.04699 10.3125 5.11183 11.9969 3.29777 13.4461C3.8548 12.0274 4.83136 10.6945 6.1548 9.57189C7.91418 8.07892 10.0525 7.18752 11.8751 7.18752C12.1238 7.18752 12.3622 7.08875 12.538 6.91293C12.7138 6.73712 12.8126 6.49866 12.8126 6.25002V4.76564L16.797 8.75002L12.8126 12.7344Z" fill="#94A3B8"/>
</svg>
