<svg width="24" height="24" viewBox="0 0 24 24" fill="none" xmlns="http://www.w3.org/2000/svg">
<path d="M5.25 3.5C4.78587 3.5 4.34075 3.68437 4.01256 4.01256C3.68437 4.34075 3.5 4.78587 3.5 5.25V8.25C3.5 8.44891 3.42098 8.63968 3.28033 8.78033C3.13968 8.92098 2.94891 9 2.75 9C2.55109 9 2.36032 8.92098 2.21967 8.78033C2.07902 8.63968 2 8.44891 2 8.25V5.25C2 4.38805 2.34241 3.5614 2.9519 2.9519C3.5614 2.34241 4.38805 2 5.25 2H8.25C8.44891 2 8.63968 2.07902 8.78033 2.21967C8.92098 2.36032 9 2.55109 9 2.75C9 2.94891 8.92098 3.13968 8.78033 3.28033C8.63968 3.42098 8.44891 3.5 8.25 3.5H5.25ZM5.25 20.5C4.78587 20.5 4.34075 20.3156 4.01256 19.9874C3.68437 19.6592 3.5 19.2141 3.5 18.75V15.75C3.5 15.5511 3.42098 15.3603 3.28033 15.2197C3.13968 15.079 2.94891 15 2.75 15C2.55109 15 2.36032 15.079 2.21967 15.2197C2.07902 15.3603 2 15.5511 2 15.75V18.75C2 19.1768 2.08406 19.5994 2.24739 19.9937C2.41072 20.388 2.65011 20.7463 2.9519 21.0481C3.25369 21.3499 3.61197 21.5893 4.00628 21.7526C4.40059 21.9159 4.8232 22 5.25 22H8.25C8.44891 22 8.63968 21.921 8.78033 21.7803C8.92098 21.6397 9 21.4489 9 21.25C9 21.0511 8.92098 20.8603 8.78033 20.7197C8.63968 20.579 8.44891 20.5 8.25 20.5H5.25ZM20.5 5.25C20.5 4.78587 20.3156 4.34075 19.9874 4.01256C19.6592 3.68437 19.2141 3.5 18.75 3.5H15.75C15.5511 3.5 15.3603 3.42098 15.2197 3.28033C15.079 3.13968 15 2.94891 15 2.75C15 2.55109 15.079 2.36032 15.2197 2.21967C15.3603 2.07902 15.5511 2 15.75 2H18.75C19.1768 2 19.5994 2.08406 19.9937 2.24739C20.388 2.41072 20.7463 2.65011 21.0481 2.9519C21.3499 3.25369 21.5893 3.61197 21.7526 4.00628C21.9159 4.40059 22 4.8232 22 5.25V8.25C22 8.44891 21.921 8.63968 21.7803 8.78033C21.6397 8.92098 21.4489 9 21.25 9C21.0511 9 20.8603 8.92098 20.7197 8.78033C20.579 8.63968 20.5 8.44891 20.5 8.25V5.25ZM18.75 20.5C19.2141 20.5 19.6592 20.3156 19.9874 19.9874C20.3156 19.6592 20.5 19.2141 20.5 18.75V15.75C20.5 15.5511 20.579 15.3603 20.7197 15.2197C20.8603 15.079 21.0511 15 21.25 15C21.4489 15 21.6397 15.079 21.7803 15.2197C21.921 15.3603 22 15.5511 22 15.75V18.75C22 19.1768 21.9159 19.5994 21.7526 19.9937C21.5893 20.388 21.3499 20.7463 21.0481 21.0481C20.7463 21.3499 20.388 21.5893 19.9937 21.7526C19.5994 21.9159 19.1768 22 18.75 22H15.75C15.5511 22 15.3603 21.921 15.2197 21.7803C15.079 21.6397 15 21.4489 15 21.25C15 21.0511 15.079 20.8603 15.2197 20.7197C15.3603 20.579 15.5511 20.5 15.75 20.5H18.75ZM13.469 5.31C12.353 5.02 11.554 5.809 11.289 6.424C11.101 6.863 10.936 7.168 10.724 7.564L10.723 7.565C10.591 7.81 10.442 8.087 10.264 8.439C9.898 9.168 9.541 9.616 9.302 9.868C9.21131 9.96467 9.11336 10.0543 9.009 10.136L7.467 10.986C6.452 11.544 5.973 12.74 6.412 13.83L6.85 14.919C6.98849 15.2524 7.20042 15.5503 7.47 15.7904C7.73958 16.0306 8.05986 16.2068 8.407 16.306L12.919 17.629C14.397 18.062 16.031 17.294 16.497 15.812L17.646 12.158C18.136 10.6 16.872 9.168 15.314 9.168H15.12C15.2107 8.76935 15.2566 8.36183 15.257 7.953C15.249 7.537 15.206 6.989 14.957 6.487C14.673 5.91 14.169 5.492 13.469 5.31Z" fill="#0D99FF"/>
</svg>
