<svg width="24" height="24" viewBox="0 0 24 24" fill="none" xmlns="http://www.w3.org/2000/svg">
<path d="M5.40002 3.60002C4.92263 3.60002 4.4648 3.78967 4.12723 4.12723C3.78967 4.4648 3.60002 4.92263 3.60002 5.40002V7.80002C3.60002 7.95915 3.53681 8.11177 3.42429 8.22429C3.31177 8.33681 3.15915 8.40002 3.00002 8.40002C2.84089 8.40002 2.68828 8.33681 2.57576 8.22429C2.46324 8.11177 2.40002 7.95915 2.40002 7.80002V5.40002C2.40002 4.60437 2.71609 3.84131 3.2787 3.2787C3.84131 2.71609 4.60437 2.40002 5.40002 2.40002H7.80002C7.95915 2.40002 8.11177 2.46324 8.22429 2.57576C8.33681 2.68828 8.40002 2.84089 8.40002 3.00002C8.40002 3.15915 8.33681 3.31177 8.22429 3.42429C8.11177 3.53681 7.95915 3.60002 7.80002 3.60002H5.40002ZM5.40002 20.4C4.92263 20.4 4.4648 20.2104 4.12723 19.8728C3.78967 19.5353 3.60002 19.0774 3.60002 18.6V16.2C3.60002 16.0409 3.53681 15.8883 3.42429 15.7758C3.31177 15.6632 3.15915 15.6 3.00002 15.6C2.84089 15.6 2.68828 15.6632 2.57576 15.7758C2.46324 15.8883 2.40002 16.0409 2.40002 16.2V18.6C2.40002 19.3957 2.71609 20.1587 3.2787 20.7213C3.84131 21.284 4.60437 21.6 5.40002 21.6H7.80002C7.95915 21.6 8.11177 21.5368 8.22429 21.4243C8.33681 21.3118 8.40002 21.1592 8.40002 21C8.40002 20.8409 8.33681 20.6883 8.22429 20.5758C8.11177 20.4632 7.95915 20.4 7.80002 20.4H5.40002ZM20.4 5.40002C20.4 4.92263 20.2104 4.4648 19.8728 4.12723C19.5353 3.78967 19.0774 3.60002 18.6 3.60002H16.2C16.0409 3.60002 15.8883 3.53681 15.7758 3.42429C15.6632 3.31177 15.6 3.15915 15.6 3.00002C15.6 2.84089 15.6632 2.68828 15.7758 2.57576C15.8883 2.46324 16.0409 2.40002 16.2 2.40002H18.6C19.3957 2.40002 20.1587 2.71609 20.7213 3.2787C21.284 3.84131 21.6 4.60437 21.6 5.40002V7.80002C21.6 7.95915 21.5368 8.11177 21.4243 8.22429C21.3118 8.33681 21.1592 8.40002 21 8.40002C20.8409 8.40002 20.6883 8.33681 20.5758 8.22429C20.4632 8.11177 20.4 7.95915 20.4 7.80002V5.40002ZM18.6 20.4C19.0774 20.4 19.5353 20.2104 19.8728 19.8728C20.2104 19.5353 20.4 19.0774 20.4 18.6V16.2C20.4 16.0409 20.4632 15.8883 20.5758 15.7758C20.6883 15.6632 20.8409 15.6 21 15.6C21.1592 15.6 21.3118 15.6632 21.4243 15.7758C21.5368 15.8883 21.6 16.0409 21.6 16.2V18.6C21.6 19.3957 21.284 20.1587 20.7213 20.7213C20.1587 21.284 19.3957 21.6 18.6 21.6H16.2C16.0409 21.6 15.8883 21.5368 15.7758 21.4243C15.6632 21.3118 15.6 21.1592 15.6 21C15.6 20.8409 15.6632 20.6883 15.7758 20.5758C15.8883 20.4632 16.0409 20.4 16.2 20.4H18.6ZM11.4264 6.47522C11.6628 5.91482 12.3792 5.18762 13.3836 5.45522C14.0268 5.62562 14.4804 6.01562 14.7348 6.54362C14.958 7.00682 14.9988 7.51802 15.0072 7.92122C15.0168 8.35322 14.9364 8.83322 14.8428 9.24602H15.1824C16.626 9.24602 17.742 10.59 17.3064 12.0024L16.2048 15.5904C15.7824 16.9608 14.2872 17.6976 12.9132 17.286L8.58122 15.9864C8.2633 15.8938 7.97061 15.73 7.72529 15.5076C7.47998 15.2851 7.28846 15.0098 7.16523 14.7024L6.74522 13.6332C6.35522 12.6396 6.77642 11.538 7.70162 11.0172L9.18962 10.1796L9.22682 10.1496C9.28082 10.1064 9.37322 10.0248 9.49322 9.89642C9.73082 9.63962 10.0812 9.18843 10.4388 8.46123C10.608 8.11683 10.7508 7.84682 10.878 7.60562C11.082 7.21682 11.2428 6.91202 11.4264 6.47522ZM9.78002 11.2236L8.29202 12.0636C7.86482 12.3036 7.70162 12.7824 7.86362 13.1928L8.28362 14.2608C8.34011 14.3995 8.42752 14.5235 8.5392 14.6234C8.65087 14.7232 8.78386 14.7962 8.92802 14.8368L13.2588 16.1364C14.0424 16.3716 14.8428 15.9372 15.0588 15.2364L16.1616 11.6484C16.3356 11.082 15.8976 10.446 15.1836 10.446H14.0628C13.9691 10.446 13.8766 10.424 13.7929 10.3818C13.7092 10.3395 13.6365 10.2783 13.5808 10.2029C13.525 10.1275 13.4877 10.0401 13.4718 9.94775C13.4559 9.85534 13.4618 9.7605 13.4892 9.67082C13.5396 9.50522 13.5912 9.32163 13.638 9.13083C13.7412 8.71203 13.8156 8.27882 13.8096 7.94522C13.8024 7.58042 13.7616 7.28522 13.6548 7.06442C13.5552 6.85802 13.3884 6.69722 13.0764 6.61442C13.024 6.59854 12.9687 6.59482 12.9146 6.60356C12.8605 6.61229 12.8092 6.63324 12.7644 6.66482C12.6627 6.73275 12.5827 6.82858 12.534 6.94082C12.33 7.42682 12.1476 7.77122 11.9436 8.15882L11.9412 8.16362C11.8152 8.40362 11.6784 8.66282 11.5176 8.99162C11.1084 9.82202 10.692 10.3704 10.374 10.7124C10.2208 10.88 10.052 11.0327 9.87003 11.1684L9.86403 11.172L9.85202 11.1816L9.84123 11.1876L9.83522 11.1924H9.83283L9.78002 11.2236Z" fill="#94A3B8"/>
</svg>
