<svg width="24" height="24" viewBox="0 0 24 24" fill="none" xmlns="http://www.w3.org/2000/svg">
<path d="M11.7356 14.7131C12.6778 13.9211 13.3537 12.8585 13.6715 11.6694C13.9893 10.4802 13.9337 9.22211 13.5122 8.06563C13.0908 6.90916 12.3238 5.9103 11.3154 5.20451C10.3069 4.49871 9.10585 4.12015 7.87496 4.12015C6.64408 4.12015 5.44298 4.49871 4.43455 5.20451C3.42612 5.9103 2.65916 6.90916 2.23768 8.06563C1.8162 9.22211 1.7606 10.4802 2.07842 11.6694C2.39624 12.8585 3.0721 13.9211 4.01434 14.7131C2.54301 15.3784 1.26795 16.4116 0.312151 17.7131C0.135616 17.9537 0.0618736 18.2545 0.107146 18.5495C0.152419 18.8444 0.312997 19.1093 0.553557 19.2858C0.794117 19.4623 1.09495 19.5361 1.38988 19.4908C1.68481 19.4455 1.94968 19.2849 2.12621 19.0444C2.78785 18.1408 3.65318 17.4058 4.652 16.8992C5.65083 16.3926 6.75501 16.1286 7.87496 16.1286C8.99492 16.1286 10.0991 16.3926 11.0979 16.8992C12.0967 17.4058 12.9621 18.1408 13.6237 19.0444C13.8002 19.2851 14.0652 19.4458 14.3602 19.4911C14.6552 19.5365 14.9562 19.4628 15.1968 19.2863C15.4375 19.1097 15.5982 18.8448 15.6436 18.5498C15.6889 18.2548 15.6152 17.9538 15.4387 17.7131C14.4823 16.4118 13.207 15.3787 11.7356 14.7131ZM4.12496 10.125C4.12496 9.38333 4.3449 8.65831 4.75695 8.04163C5.16901 7.42494 5.75468 6.94429 6.4399 6.66047C7.12512 6.37664 7.87912 6.30237 8.60655 6.44707C9.33398 6.59176 10.0022 6.94892 10.5266 7.47336C11.0511 7.99781 11.4082 8.666 11.5529 9.39343C11.6976 10.1209 11.6233 10.8749 11.3395 11.5601C11.0557 12.2453 10.575 12.831 9.95835 13.243C9.34167 13.6551 8.61664 13.875 7.87496 13.875C6.8804 13.875 5.92657 13.4799 5.22331 12.7767C4.52005 12.0734 4.12496 11.1196 4.12496 10.125ZM23.4468 19.2816C23.3277 19.3691 23.1926 19.4323 23.049 19.4675C22.9055 19.5028 22.7564 19.5094 22.6104 19.4871C22.4643 19.4647 22.324 19.4137 22.1976 19.3371C22.0712 19.2605 21.9612 19.1598 21.8737 19.0406C21.2104 18.1387 20.3448 17.4051 19.3463 16.8987C18.3479 16.3923 17.2445 16.1273 16.125 16.125C15.8266 16.125 15.5404 16.0065 15.3295 15.7955C15.1185 15.5845 15 15.2984 15 15C15 14.7016 15.1185 14.4155 15.3295 14.2045C15.5404 13.9935 15.8266 13.875 16.125 13.875C16.658 13.8741 17.1846 13.7595 17.6699 13.539C18.1551 13.3184 18.5878 12.997 18.939 12.5961C19.2902 12.1951 19.5519 11.7239 19.7067 11.2139C19.8615 10.7039 19.9057 10.1667 19.8365 9.6382C19.7673 9.10971 19.5863 8.60203 19.3054 8.14903C19.0246 7.69602 18.6504 7.30809 18.2078 7.0111C17.7652 6.71411 17.2644 6.51488 16.7387 6.4267C16.213 6.33852 15.6746 6.3634 15.1593 6.4997C15.0154 6.54134 14.8646 6.55381 14.7158 6.53638C14.567 6.51896 14.4232 6.47199 14.2928 6.39823C14.1624 6.32446 14.0481 6.2254 13.9565 6.10685C13.8649 5.98829 13.7979 5.85264 13.7594 5.70784C13.7209 5.56304 13.7118 5.41202 13.7325 5.26364C13.7532 5.11526 13.8033 4.9725 13.8799 4.84375C13.9565 4.715 14.0581 4.60285 14.1786 4.51388C14.2991 4.42491 14.4362 4.36091 14.5818 4.32564C15.8995 3.97651 17.2967 4.08644 18.5435 4.63733C19.7903 5.18822 20.8124 6.14723 21.4414 7.35647C22.0705 8.56572 22.2691 9.95312 22.0045 11.2903C21.7398 12.6274 21.0278 13.8346 19.9856 14.7131C21.4569 15.3784 22.732 16.4116 23.6878 17.7131C23.863 17.9533 23.9361 18.2532 23.8909 18.5471C23.8458 18.841 23.6861 19.1051 23.4468 19.2816Z" fill="#94A3B8"/>
</svg>
