<svg width="19" height="12" viewBox="0 0 19 12" fill="none" xmlns="http://www.w3.org/2000/svg">
<path d="M15.7281 7.37272C16.3307 7.97919 16.9667 8.54979 17.5072 9.21742C17.746 9.5141 17.972 9.82026 18.1449 10.1646C18.39 10.654 18.168 11.1926 17.7423 11.2218L15.0957 11.2206C14.413 11.279 13.8685 10.9957 13.4106 10.5147C13.0442 10.1299 12.7049 9.72046 12.3525 9.32275C12.2081 9.1602 12.0569 9.00724 11.8763 8.88634C11.515 8.6446 11.2014 8.71862 10.9949 9.10704C10.7846 9.50211 10.7369 9.93956 10.7163 10.3799C10.6879 11.0223 10.4995 11.1911 9.87351 11.2206C8.53563 11.2856 7.26593 11.077 6.08641 10.3813C5.0465 9.76796 4.2401 8.90216 3.53822 7.92197C2.17163 6.01334 1.1251 3.91607 0.184523 1.76004C-0.0271946 1.27428 0.127639 1.01353 0.647591 1.0043C1.511 0.987011 2.37428 0.988241 3.2387 1.00307C3.58961 1.00836 3.82192 1.21583 3.95742 1.55755C4.42454 2.74152 4.99613 3.86795 5.71359 4.91207C5.90465 5.19005 6.09948 5.46802 6.37692 5.66368C6.68384 5.88032 6.91752 5.80852 7.06191 5.45609C7.15353 5.23262 7.19364 4.99193 7.21429 4.75259C7.2827 3.92917 7.29171 3.10717 7.17174 2.28665C7.09808 1.77456 6.81826 1.44305 6.32254 1.34614C6.06958 1.29674 6.10724 1.19971 6.22972 1.05088C6.44245 0.794185 6.64253 0.634399 7.04138 0.634399H10.0325C10.5033 0.730197 10.6079 0.948249 10.6724 1.43665L10.675 4.86143C10.6698 5.0505 10.7666 5.61157 11.097 5.73671C11.3614 5.8258 11.5357 5.60775 11.6943 5.43492C12.4105 4.65144 12.9216 3.72552 13.3782 2.76674C13.5809 2.34516 13.7551 1.90733 13.924 1.46987C14.0491 1.14526 14.2454 0.985534 14.6001 0.99261L17.4789 0.995255C17.5642 0.995255 17.6506 0.996548 17.7333 1.01113C18.2183 1.09634 18.3513 1.31144 18.2015 1.79972C17.9654 2.56579 17.5061 3.2042 17.057 3.84556C16.5769 4.53029 16.0635 5.19158 15.5874 5.88038C15.15 6.50937 15.1847 6.82642 15.7281 7.37272Z" fill="white"/>
</svg>
