<svg width="20" height="16" viewBox="0 0 20 16" fill="none" xmlns="http://www.w3.org/2000/svg">
<path fill-rule="evenodd" clip-rule="evenodd" d="M18.308 1.89742C18.8491 2.51745 19.0401 3.92072 19.0401 3.92072C19.0401 3.92072 19.2311 5.58507 19.2311 7.24938V8.78319C19.2311 10.4149 19.0401 12.0792 19.0401 12.0792C19.0401 12.0792 18.8491 13.4825 18.308 14.1025C17.642 14.8474 16.8897 14.9134 16.5165 14.9462C16.4972 14.9478 16.479 14.9494 16.4618 14.951C13.8836 15.1795 10.0003 15.1795 10.0003 15.1795C10.0003 15.1795 5.19392 15.1468 3.72976 14.9837C3.65196 14.9653 3.55615 14.9515 3.4472 14.9358C2.97672 14.8681 2.26122 14.765 1.69261 14.1026C1.15153 13.4826 0.960529 12.0793 0.960529 12.0793C0.960529 12.0793 0.769531 10.4476 0.769531 8.78323V7.24942C0.769531 5.58507 0.960529 3.92072 0.960529 3.92072C0.960529 3.92072 1.11965 2.51748 1.69261 1.89742C2.35857 1.15259 3.11088 1.08657 3.48414 1.05381C3.50338 1.05212 3.5216 1.05052 3.53876 1.04892C6.11699 0.853139 10.0003 0.820496 10.0003 0.820496C10.0003 0.820496 13.8836 0.853139 16.4618 1.04892C16.4884 1.0514 16.5176 1.05369 16.5491 1.05616C16.9322 1.08627 17.6609 1.14351 18.308 1.89742ZM7.77222 11.7855V4.70395L13.82 8.32635L7.77222 11.7855Z" fill="white"/>
</svg>
